# xmcd CD database file
#
# Track frame offsets:
#	150
#	33942
#	53785
#	76267
#	93527
#	131605
#	156522
#	162575
#	222840
#
# Disc length: 3284 seconds
#
# Revision: 2
# Processed by: cddbd v1.4PL0 Copyright (c) Steve Scherf et al.
# Submitted via: CDex 1.40Release
#
DISCID=760cd209
DTITLE=Bernard Allison - No Mercy
DYEAR=1994
DGENRE=Blues
TTITLE0=Rock Me Baby
TTITLE1=Don't Go To Sleep On Me
TTITLE2=Break'in Up Somebody' Home
TTITLE3=Change Your Way Of Living
TTITLE4=Driven Wheel
TTITLE5=Next Generation
TTITLE6=Boo Boo's Boogie
TTITLE7=Tin Pan Alley
TTITLE8=Help
EXTD=YEAR: 1994 ID3G: 0
EXTT0=
EXTT1=
EXTT2=
EXTT3=
EXTT4=
EXTT5=
EXTT6=
EXTT7=
EXTT8=
PLAYORDER=
